<svg width="16" height="16" viewBox="0 0 16 16" fill="none" xmlns="http://www.w3.org/2000/svg">
<path fill-rule="evenodd" clip-rule="evenodd" d="M8.74483 15.0899C8.45698 15.0905 8.18088 14.9759 7.97803 14.7717L7.21124 14.0049C7.0048 13.8281 6.91488 13.5505 6.97845 13.2862C7.04201 13.022 7.24834 12.8157 7.51259 12.7521C7.77685 12.6885 8.05443 12.7784 8.23122 12.9849L8.74483 13.4985L8.99801 13.2453C9.05258 13.1904 9.08808 13.1194 9.09929 13.0428L9.52609 10.0624C9.57142 9.75246 9.71611 9.46561 9.93842 9.24496L11.7397 7.44372C12.965 6.22665 13.6527 4.57002 13.6494 2.84296V1.44681H12.2533C10.5262 1.44353 8.86957 2.13119 7.65251 3.35656L5.85127 5.1578C5.63061 5.38011 5.34376 5.5248 5.03384 5.57014L2.04624 5.99694C1.96962 6.00814 1.89862 6.04364 1.84369 6.09821L1.5905 6.3514L2.10411 6.865C2.31055 7.04179 2.40047 7.31938 2.3369 7.58363C2.27334 7.84789 2.06701 8.05421 1.80276 8.11778C1.5385 8.18134 1.26092 8.09142 1.08413 7.88498L0.317337 7.11819C-0.105779 6.69455 -0.105779 6.00825 0.317337 5.5846L0.830943 5.071C1.10685 4.79455 1.46454 4.61443 1.85092 4.55739L4.83852 4.13059L6.63976 2.32935C8.12941 0.832479 10.156 -0.00627152 12.2677 3.53116e-05H14.3728C14.7723 3.53116e-05 15.0962 0.323908 15.0962 0.723425V2.84296C15.1025 4.95474 14.2637 6.98129 12.7669 8.47093L10.9656 10.2722L10.5388 13.2598C10.4818 13.6462 10.3017 14.0038 10.0252 14.2797L9.51162 14.7934C9.30525 14.9896 9.02957 15.0963 8.74483 15.0899ZM5.16397 12.9849L6.18395 11.9649C6.42974 11.6779 6.41322 11.25 6.14602 10.9829C5.87882 10.7157 5.45098 10.6991 5.16397 10.9449L4.14399 11.9649C3.93755 12.1417 3.84763 12.4193 3.9112 12.6835C3.97476 12.9478 4.18109 13.1541 4.44534 13.2177C4.7096 13.2812 4.98718 13.1913 5.16397 12.9849ZM2.09708 11.9649L4.14427 9.9177C4.39006 9.63069 4.37354 9.20285 4.10634 8.93566C3.83914 8.66846 3.4113 8.65193 3.12429 8.89772L1.0771 10.9449C0.87066 11.1217 0.780738 11.3993 0.844304 11.6635C0.907869 11.9278 1.11419 12.1341 1.37845 12.1977C1.6427 12.2613 1.92029 12.1713 2.09708 11.9649ZM11.3057 6.85054C12.1519 6.00325 12.1519 4.63065 11.3057 3.78337C11.1289 3.57693 10.8513 3.48701 10.5871 3.55057C10.3228 3.61414 10.1165 3.82046 10.0529 4.08472C9.98935 4.34897 10.0793 4.62656 10.2857 4.80335C10.4227 4.93917 10.4997 5.12407 10.4997 5.31695C10.4997 5.50984 10.4227 5.69473 10.2857 5.83056C10.0036 6.11103 9.54787 6.11103 9.26573 5.83056C9.12878 5.69473 9.05175 5.50984 9.05175 5.31695C9.05175 5.12407 9.12878 4.93917 9.26573 4.80335C9.51152 4.51633 9.49499 4.0885 9.22779 3.8213C8.9606 3.5541 8.53276 3.53758 8.24575 3.78337C7.66514 4.32438 7.42615 5.13916 7.62252 5.90807C7.81888 6.67699 8.4193 7.2774 9.18821 7.47377C9.95713 7.67014 10.7719 7.43114 11.3129 6.85054H11.3057Z" fill="#3E2AD1"/>
</svg>
