<svg width="6" height="4" viewBox="0 0 6 4" fill="none" xmlns="http://www.w3.org/2000/svg">
<path fill-rule="evenodd" clip-rule="evenodd" d="M3.00125 3.7072C2.93927 3.70708 2.87955 3.68984 2.83368 3.65884L0.122551 1.82659C0.0444266 1.77367 -6.97389e-05 1.69871 8.20456e-08 1.62012V1.07509C3.39136e-05 0.976185 0.0704694 0.884681 0.185135 0.834583C0.2998 0.784484 0.441557 0.783279 0.557732 0.831414L2.62359 1.68522C2.74446 1.73659 2.78645 1.8511 2.71738 1.94099C2.64832 2.03088 2.49435 2.06211 2.37349 2.01075L0.500208 1.23321V1.57919L3.00125 3.27006L5.50229 1.57919V1.07881L3.63902 2.00889C3.56496 2.05031 3.46617 2.05789 3.38231 2.02858C3.29844 1.99927 3.24324 1.93787 3.23886 1.86902C3.23447 1.80018 3.28163 1.73518 3.3614 1.7001L5.41726 0.680743C5.53243 0.623839 5.68035 0.618666 5.8022 0.667283C5.92404 0.715899 6.00005 0.810422 6 0.913261V1.62756C6.00007 1.70615 5.95557 1.78112 5.87745 1.83403L3.16632 3.66628C3.11966 3.69417 3.06109 3.70869 3.00125 3.7072Z" fill="#F51E38"/>
</svg>
