<svg width="12" height="13" viewBox="0 0 12 13" fill="none" xmlns="http://www.w3.org/2000/svg">
<path fill-rule="evenodd" clip-rule="evenodd" d="M6.99995 12.7965C6.72382 12.8221 6.47983 12.6118 6.45498 12.3268C6.43013 12.0417 6.63383 11.7899 6.90995 11.7642C9.45105 11.2787 11.215 8.87399 10.9788 6.21734C10.7427 3.5607 8.58426 1.5276 6 1.5276C3.41574 1.5276 1.25733 3.5607 1.02117 6.21734C0.785015 8.87399 2.54895 11.2787 5.09005 11.7642C5.36617 11.8155 5.54973 12.0882 5.50002 12.3732C5.45032 12.6583 5.18618 12.8478 4.91005 12.7965C1.86017 12.2148 -0.257587 9.32934 0.0253119 6.14091C0.308211 2.95249 2.8985 0.512184 6 0.512184C9.1015 0.512184 11.6918 2.95249 11.9747 6.14091C12.2576 9.32934 10.1398 12.2148 7.08995 12.7965H6.99995Z" fill="#F51E38"/>
</svg>
